<?xml version="1.0" encoding="utf-8"?>
<!-- Generator: Adobe Illustrator 16.0.4, SVG Export Plug-In . SVG Version: 6.00 Build 0)  -->
<!DOCTYPE svg PUBLIC "-//W3C//DTD SVG 1.1//EN" "http://www.w3.org/Graphics/SVG/1.1/DTD/svg11.dtd">
<svg version="1.1" id="Layer_1" xmlns="http://www.w3.org/2000/svg" xmlns:xlink="http://www.w3.org/1999/xlink" x="0px" y="0px"
	 width="612px" height="258.069px" viewBox="0 0 612 258.069" enable-background="new 0 0 612 258.069" xml:space="preserve">
<g>
	<defs>
		<rect id="SVGID_1_" x="66" y="43.562" width="479.957" height="154.192"/>
	</defs>
	<clipPath id="SVGID_2_">
		<use xlink:href="#SVGID_1_"  overflow="visible"/>
	</clipPath>
	<path clip-path="url(#SVGID_2_)" d="M188.405,158.951c3.426-0.365,7.578-1.699,10.864-3.028c0.102-0.042,0.424-0.209,0.424-0.209
		s0.175-0.549,0.179-0.754c0.31-2.617,0.221-3.992,0.088-5.479c-0.122-1.165-0.85-3.836-0.85-3.836s-0.072-0.338-0.226-0.367
		C195.607,149.553,191.902,154.386,188.405,158.951 M199.715,156.623c-0.399,0.11-0.735,0.237-0.892,0.283
		c-0.704,0.217-2.567,0.98-7.091,2.146c-1.502,0.386-3.759,0.832-3.759,0.832s-1.514,1.966-2.167,3.092
		c-2.159,3.723-4.453,7.347-5.323,11.654c-0.457,2.265,1.289,4.022,3.51,3.253c1.59-0.55,3.183-1.323,4.517-2.336
		c5.267-4.002,8.521-9.408,10.418-15.677C199.213,158.931,199.496,157.669,199.715,156.623 M197.884,139.887
		c0.265-0.248,0.563-0.499,0.829-0.781c2.243-2.381,4.499-4.752,6.714-7.158c4.4-4.78,8.813-9.551,13.139-14.397
		c1.046-1.171,1.855-2.581,2.603-3.973c0.263-0.489,0.216-1.369-0.068-1.845c-0.164-0.273-1.205-0.316-1.644-0.08
		c-1.849,0.994-3.781,1.937-5.385,3.258c-3.816,3.146-7.49,6.465-11.171,9.771c-3.023,2.716-5.986,5.501-8.932,8.302
		c-0.159,0.151-0.773,0.751-0.773,0.751s1.03,0.933,1.962,2.03C196.089,136.862,196.888,138.159,197.884,139.887 M167.646,156.79
		c0.287,0.193,0.734,0.345,0.958,0.431c4.233,1.624,8.652,2.064,13.138,1.985c0.174-0.005,0.508-0.021,0.508-0.021
		s0.532-0.549,0.693-0.76c2.085-2.73,4.051-5.557,6.2-8.235c2.322-2.894,4.819-5.646,7.196-8.498
		c0.149-0.18,0.728-0.951,0.728-0.951s-0.09-0.404-0.179-0.552c-0.886-1.577-1.098-1.896-2.163-3.326
		c-1.064-1.431-2.261-2.462-2.261-2.462s-0.558,0.44-0.901,0.762c-5.422,5.078-10.885,10.114-16.363,15.133
		C172.831,152.464,170.131,154.591,167.646,156.79 M191.531,133.528c-0.353-0.309-0.594-0.567-0.879-0.761
		c-7.178-4.895-15.014-6.37-23.293-3.733c-6.357,2.025-9.652,7.221-9.847,13.476c-0.197,6.312,3.238,10.484,8.442,13.451
		c0.181,0.104,0.794,0.329,0.794,0.329s0.532-0.368,0.708-0.505c1.361-1.05,2.662-2.186,3.921-3.36
		c5.238-4.891,10.451-9.807,15.675-14.711C188.522,136.333,190,134.96,191.531,133.528 M165.916,157.088
		c-2.561-1.397-4.066-2.364-5.815-3.734c-8.038-6.301-6.743-16.363,0.35-21.688c5.246-3.939,11.169-5.099,17.605-4.464
		c5.274,0.521,9.955,2.372,14.168,5.728c2.745-2.537,5.442-5.08,8.195-7.562c5.052-4.557,9.958-9.297,15.723-12.986
		c0.879-0.564,1.848-1,2.807-1.427c1.659-0.734,3.26-0.58,4.506,0.78c1.21,1.321,0.754,2.974,0.015,4.207
		c-1.511,2.524-3.149,5.021-5.064,7.244c-5.967,6.935-12.096,13.732-18.131,20.61c-0.159,0.183-0.493,0.618-0.493,0.618
		s0.038,0.608,0.1,0.784c1.109,3.201,1.329,6.459,0.737,10.185c1.819-1.003,3.433-1.809,4.964-2.75
		c6.275-3.864,11.738-8.602,15.84-14.804c2.165-3.276,3.561-6.829,4.106-10.735c0.442,1.624,0.026,3.182-0.441,4.699
		c-1.748,5.687-5.287,10.195-9.477,14.276c-4.08,3.975-9.176,7.16-13.854,9.57c-0.498,0.22-1.11,0.584-1.11,0.584
		s-0.355,1.02-0.455,1.485c-1.656,7.774-5.579,14.129-11.986,18.863c-2.464,1.821-5.193,2.975-8.395,2.245
		c-1.898-0.433-3.326-1.975-3.542-3.927c-0.369-3.315,0.86-6.237,2.309-9.079c0.958-1.875,2.051-3.751,3.14-5.696
		c-0.313-0.056-0.594-0.073-0.869-0.081c-4.472-0.111-8.859-0.377-13.071-2.114c-0.214-0.089-0.898-0.398-0.898-0.398
		s-0.646,0.583-0.887,0.764c-4.191,3.157-8.26,6.48-12.514,9.549c-8.359,6.026-17.375,10.836-27.163,14.151
		c-9.021,3.057-18.29,4.304-27.774,3.562c-7.522-0.588-14.778-2.273-21.247-6.413c-5.597-3.582-9.372-8.567-10.685-15.107
		c-1.632-8.131-0.037-15.592,5.371-22.08c4.869-5.842,11.188-9.445,18.279-11.807c6.999-2.329,14.193-3.246,21.54-2.324
		c5.334,0.669,10.417,2.212,14.838,5.395c5.286,3.805,7.766,8.998,6.798,15.497c-0.655,4.392-3.039,7.991-6.426,10.8
		c-5.762,4.776-12.505,6.97-19.945,6.808c-4.116-0.089-8.156-0.867-11.721-3.111c-3.879-2.439-5.769-5.74-4.861-10.397
		c0.558-2.856,2.546-4.896,4.925-6.472c0.981-0.651,2.085-1.122,3.156-1.625c0.358-0.169,0.788-0.184,1.243-0.124
		c-2.227,0.97-4.113,2.309-5.511,4.287c-3.654,5.168-2.015,11.598,3.679,14.38c4.864,2.377,9.938,2.67,15.207,1.707
		c5.282-0.963,9.913-3.158,13.53-7.111c4.277-4.674,5.904-10.194,4.094-16.404c-1.434-4.918-5.048-7.996-9.504-10.072
		c-6.861-3.198-14.096-3.593-21.502-2.552c-5.951,0.837-11.531,2.662-16.641,5.848c-6.413,3.997-11.065,9.399-13.025,16.814
		c-0.985,3.725-0.95,7.563-0.389,11.347c0.806,5.426,3.088,10.175,7.203,13.894c3.593,3.246,7.893,5.188,12.527,6.469
		c6.527,1.803,13.202,2.008,19.875,1.534c6.65-0.472,13.06-2.182,19.322-4.511c9.231-3.432,17.691-8.248,25.622-14.018
		C158.209,163.35,162.035,160.101,165.916,157.088"/>
	<path clip-path="url(#SVGID_2_)" d="M220.517,155.871c0,1.107,0,1.785,0.184,2.032c0.186,0.184,1.109,0.308,4.251,0.308
		c2.217,0,4.557-0.246,6.343-1.602c1.662-1.293,3.079-3.448,3.079-7.637c0-4.864-3.017-9.483-9.853-9.483
		c-3.82,0-4.004,0.246-4.004,1.97V155.871z M215.467,147.064c0-5.852-0.184-6.898-2.708-7.206l-1.971-0.246
		c-0.432-0.309-0.432-1.294,0.06-1.54c3.449-0.309,7.698-0.492,13.735-0.492c3.817,0,7.451,0.307,10.285,1.847
		c2.955,1.54,5.11,4.312,5.11,8.622c0,5.852-4.618,9.053-7.698,10.285c-0.307,0.369,0,0.985,0.308,1.478
		c4.927,7.945,8.192,12.871,12.379,16.382c1.047,0.925,2.587,1.602,4.249,1.725c0.309,0.123,0.37,0.616,0.062,0.862
		c-0.555,0.185-1.54,0.308-2.71,0.308c-5.235,0-8.375-1.539-12.748-7.76c-1.601-2.278-4.127-6.528-6.035-9.299
		c-0.925-1.355-1.909-1.972-4.373-1.972c-2.771,0-2.895,0.062-2.895,1.355v7.76c0,6.467,0.124,7.205,3.695,7.698l1.294,0.185
		c0.37,0.309,0.246,1.355-0.123,1.54c-2.771-0.124-4.866-0.185-7.329-0.185c-2.587,0-4.804,0.061-7.698,0.185
		c-0.37-0.185-0.493-1.108-0.124-1.54l1.54-0.185c3.573-0.431,3.695-1.231,3.695-7.698V147.064z"/>
	<path clip-path="url(#SVGID_2_)" d="M267.2,169.172c0,6.467,0.123,7.391,3.696,7.698l1.971,0.185
		c0.369,0.246,0.245,1.355-0.125,1.54c-3.51-0.124-5.603-0.185-8.067-0.185s-4.619,0.061-8.561,0.185
		c-0.368-0.185-0.493-1.231,0-1.54l2.218-0.185c3.51-0.308,3.818-1.231,3.818-7.698v-27.528c0-1.909,0-1.971-1.848-1.971h-3.387
		c-2.648,0-6.035,0.122-7.575,1.539c-1.477,1.355-2.093,2.71-2.77,4.25c-0.494,0.369-1.356,0.062-1.602-0.431
		c0.985-2.772,1.908-6.714,2.339-9.177c0.186-0.123,0.987-0.186,1.171,0c0.369,1.971,2.402,1.908,5.235,1.908h24.941
		c3.327,0,3.881-0.123,4.804-1.724c0.309-0.123,0.986-0.062,1.109,0.185c-0.678,2.525-1.109,7.514-0.924,9.361
		c-0.246,0.493-1.294,0.493-1.6,0.123c-0.186-1.54-0.617-3.819-1.54-4.496c-1.417-1.047-3.757-1.539-7.145-1.539h-4.373
		c-1.846,0-1.785,0.062-1.785,2.093V169.172z"/>
	<path clip-path="url(#SVGID_2_)" d="M487.001,169.477c1.345,0.033,3.306-0.802,3.968-1.851c0.287-0.456,0.393-1.119,0.329-1.655
		c-0.026-0.212-0.776-0.523-1.151-0.47C488.417,165.755,486.592,168.005,487.001,169.477 M474.611,146.22
		c0.271,0.382,1.312,2.106,1.505,2.315c1.217,1.302,2.433,2.604,3.671,3.885c1.827,1.89,3.95,3.422,6.183,4.767
		c3.122,1.88,6.452,3.289,10.087,3.903c4.157,0.703,8.128,0.422,11.789-1.928c2.135-1.37,3.688-3.163,4.595-5.553
		c0.291-0.769,0.133-1.051-0.612-1.267c-4.53-1.317-7.185-2.218-13.684-3.607c-6.498-1.39-10.873-2.118-17.379-2.295
		C479.794,146.416,475.766,146.231,474.611,146.22 M478.339,128.443c-2.561-0.606-4.443,0.555-5.959,2.327
		c-1.366,1.599-1.736,3.604-1.609,5.682c0.112,1.833,0.688,3.541,1.382,5.23c0.521,1.272,0.498,1.271,1.847,1.39
		c5.645,0.5,10.602,0.298,19.146,1.89c8.546,1.591,15.425,3.944,19.45,5.139c0.241,0.072,0.49,0.119,0.83,0.2
		c-0.028-0.974-0.002-1.823-0.084-2.659c-0.283-2.854-1.102-5.562-2.384-8.12c-0.867-1.729-1.693-3.494-2.739-5.113
		c-1.128-1.746-2.449-3.374-3.761-4.994c-2.573-3.181-5.396-6.128-8.745-8.504c-2.229-1.579-4.499-3.118-6.849-4.512
		c-2.982-1.769-6.215-3.02-9.617-3.686c-2.246-0.441-4.556-0.79-6.837-0.78c-4.681,0.02-9.01,1.312-12.841,4.152
		c-2.261,1.675-4.179,3.64-5.488,6.095c-1.919,3.603-2.391,7.497-1.902,11.529c0.323,2.675,1.103,5.227,1.98,7.76
		c0.282,0.817,0.719,1.335,1.687,1.211c0.512-0.065,1.04-0.032,1.559-0.02c4.457,0.104,8.914,0.216,13.371,0.315
		c0.197,0.006,0.396-0.049,0.562-0.072c-0.355-1.015-0.739-1.943-1.003-2.905c-0.864-3.136-1.088-6.213,0.84-9.114
		c1.153-1.736,2.688-2.859,4.763-3.09C476.758,127.703,477.658,127.71,478.339,128.443 M485.899,169.534
		c0.14-1.965,1.087-3.348,2.671-4.337c0.868-0.545,2.426-0.495,3.003,0.102c0.991,1.027,0.742,2.143-0.157,3.107
		c-1.064,1.139-2.447,1.709-3.979,1.885c-0.504,0.057-0.61,0.321-0.526,0.717c0.469,2.212,1.571,4.163,2.965,5.858
		c1.61,1.962,3.423,3.786,5.315,5.482c1.938,1.736,3.975,3.406,6.157,4.808c2.733,1.755,5.593,3.35,8.521,4.755
		c5.796,2.78,11.863,4.633,18.377,4.653c2.803,0.009,5.545-0.42,8.1-1.534c2.185-0.952,4.189-2.232,5.762-4.136
		c1.281-1.549,2.214-3.243,2.576-5.193c0.901-4.852-0.638-9.158-3.386-13.024c-1.694-2.384-3.703-4.557-5.696-6.707
		c-1.219-1.316-2.6-2.512-4.043-3.581c-1.935-1.432-3.974-2.733-6.017-4.012c-3.497-2.189-7.281-3.779-11.144-5.197
		c-0.468-0.172-0.667-0.046-0.894,0.382c-0.596,1.117-1.197,2.239-1.908,3.282c-1.817,2.666-4.478,4.119-7.511,4.929
		c-3.441,0.92-6.872,0.65-10.294-0.202c-5.333-1.326-9.975-3.973-14.062-7.554c-1.886-1.65-3.526-3.6-5.162-5.512
		c-0.538-0.629-1.394-2.48-2.131-2.491c-4.954-0.07-6.851-0.091-11.807-0.168c-0.227-0.004-4.074-0.055-4.492-0.034
		c0.474,0.749,1.709,3.043,2.134,3.601c2.236,2.921,4.344,5.95,7.073,8.46c1.486,1.364,2.884,2.845,4.479,4.068
		c1.973,1.512,4.059,2.889,6.184,4.18C479.021,167.955,482.25,169.271,485.899,169.534 M393.094,153.038
		c17.221-4.453,44.275-10.17,58.035-10.233c0.265,0.02,0.53-0.009,0.807-0.016c-0.426-1.788-0.927-3.479-1.223-5.206
		c-0.825-4.836-0.557-9.578,1.562-14.094c1.622-3.459,4.019-6.239,7.192-8.409c2.746-1.879,5.73-3.085,8.976-3.658
		c3.618-0.639,7.24-0.553,10.852,0.146c3.439,0.668,6.75,1.732,9.903,3.259c2.963,1.435,5.757,3.132,8.389,5.137
		c4.153,3.161,7.828,6.772,10.812,11.041c1.7,2.431,3.152,5.012,4.24,7.815c1.104,2.844,1.799,5.733,1.943,8.76
		c0.037,0.787-0.068,1.589-0.185,2.372c-0.089,0.601,0.161,0.898,0.665,1.134c2.137,0.992,4.317,1.908,6.381,3.034
		c2.193,1.198,4.306,2.56,6.396,3.935c1.469,0.966,2.892,2.018,4.246,3.138c1.239,1.027,2.393,2.164,3.521,3.316
		c1.555,1.586,3.11,3.183,4.558,4.865c2.474,2.873,4.287,6.15,5.239,9.818c1.058,4.078,0.683,8.026-1.863,11.535
		c-1.422,1.957-3.354,3.328-5.484,4.49c-2.663,1.454-5.53,2.123-8.481,2.404c-3.48,0.332-6.94,0.021-10.376-0.688
		c-5.428-1.123-10.554-3.073-15.358-5.782c-2.397-1.35-4.61-3.042-6.829-4.683c-3.042-2.248-5.645-4.954-7.766-8.086
		c-1.453-2.144-2.751-4.392-3.136-7.016c-0.109-0.75-0.452-0.942-1.17-0.993c-3.623-0.254-6.991-1.456-10.167-3.116
		c-2.436-1.275-4.816-2.697-7.059-4.287c-2.559-1.813-4.98-3.845-7.001-6.277c-1.562-1.878-3.071-3.8-4.543-5.749
		c-0.624-0.826-1.164-1.738-1.599-2.679c-0.27-0.585-1.208-2.533-1.769-2.574c-18.463,0.491-50.228,8.606-57.488,10.57
		c-22.21,6.007-57.962,17.538-73.709,21.741c-11.815,3.153-16.045,3.445-21.003,3.267c-4.957-0.179-7.821-1.479-1.141-1.581
		c6.68-0.103,14.423-1.193,22.222-3.822C337.906,170.395,375.213,157.662,393.094,153.038"/>
	<path clip-path="url(#SVGID_2_)" d="M306.897,181.06c-4.575,0.616-9.155,0.757-13.61-0.786c-3.179-1.104-5.767-2.878-6.493-6.454
		c-0.369-1.807-0.36-3.609,0.453-5.325c0.112-0.239,0.339-0.427,0.513-0.638c0.058,0.037,0.116,0.073,0.174,0.11
		c-0.024,0.14-0.054,0.279-0.069,0.421c-0.082,0.843-0.351,1.723-0.203,2.525c0.575,3.17,2.219,5.624,5.145,7.146
		c3.054,1.587,4.987,1.669,8.365,1.689"/>
	<path clip-path="url(#SVGID_2_)" d="M308.787,158.427c-0.651,0.103-1.266,0.188-1.855,0.221c-1.232,0.08-2.429-0.026-3.442-0.524
		c-0.5-0.252-0.92-0.621-1.219-1.028c-0.301-0.409-0.44-0.86-0.521-1.249c-0.154-0.787-0.056-1.396,0.153-1.762
		c0.197-0.37,0.432-0.506,0.432-0.506s0.105,0.239,0.184,0.602c0.108,0.361,0.08,0.86,0.237,1.426
		c0.174,0.559,0.529,1.136,1.255,1.506c0.712,0.393,1.749,0.537,2.874,0.511c1.199,0.014,2.436,0.001,3.768-0.278
		C310.652,157.344,309.432,158.356,308.787,158.427"/>
	<path clip-path="url(#SVGID_2_)" d="M255.948,180.384c0,0,0.268-0.062,0.738-0.146c0.471-0.075,1.14-0.213,1.948-0.324
		c0.806-0.134,1.752-0.239,2.78-0.26c1.025-0.052,2.121-0.068,3.217-0.085c1.094,0.014,2.181,0.069,3.202,0.131
		c1.019,0.063,1.97,0.128,2.783,0.251c1.625,0.224,2.697,0.434,2.697,0.434s-1.098,0.078-2.726,0.105
		c-0.814,0.012-1.762,0.025-2.78,0.041c-0.508,0-1.033,0.001-1.566,0.001c-0.532-0.004-1.076-0.03-1.614-0.016
		c-1.077,0.004-2.153,0.009-3.166-0.022c-0.507-0.016-0.996-0.03-1.461-0.044c-0.467,0.013-0.911,0.015-1.319,0.013
		c-0.818,0.007-1.502-0.032-1.979-0.039C256.224,180.408,255.948,180.384,255.948,180.384"/>
	<path clip-path="url(#SVGID_2_)" d="M210.1,180.127c0,0,0.239-0.055,0.66-0.126c0.423-0.061,1.022-0.179,1.747-0.267
		c0.727-0.079,1.585-0.12,2.503-0.156s1.91-0.064,2.883-0.04c1.95,0.059,3.899,0.14,5.359,0.363
		c1.457,0.202,2.415,0.398,2.415,0.398s-0.985,0.092-2.443,0.14c-0.73,0.015-1.58,0.032-2.491,0.051
		c-0.912,0.02-1.884,0.009-2.854-0.004c-0.976-0.039-1.931-0.021-2.839-0.068c-0.905-0.026-1.752-0.091-2.486-0.135
		c-0.734-0.017-1.349-0.075-1.778-0.096C210.347,180.159,210.1,180.127,210.1,180.127"/>
	<path clip-path="url(#SVGID_2_)" d="M232.169,170.933c0,0,0.207,0.271,0.548,0.76c0.17,0.245,0.375,0.542,0.611,0.883
		c0.226,0.351,0.533,0.7,0.832,1.104c0.319,0.391,0.612,0.847,1.006,1.269c0.391,0.42,0.754,0.908,1.203,1.339
		c0.451,0.427,0.881,0.908,1.396,1.299l0.755,0.618l0.816,0.537c0.263,0.199,0.56,0.332,0.844,0.483
		c0.289,0.146,0.569,0.312,0.874,0.404c0.301,0.103,0.588,0.242,0.889,0.325c0.302,0.078,0.603,0.154,0.897,0.23
		c0.6,0.087,1.186,0.187,1.751,0.185c0.561,0.021,1.1-0.012,1.596-0.062c0.992-0.096,1.818-0.289,2.395-0.423
		c0.578-0.144,0.909-0.226,0.909-0.226s-0.304,0.156-0.85,0.398c-0.28,0.104-0.612,0.259-1.01,0.389
		c-0.395,0.144-0.847,0.287-1.358,0.394c-0.506,0.109-1.069,0.214-1.671,0.232c-0.603,0.047-1.242,0.007-1.902-0.068
		c-0.326-0.066-0.657-0.134-0.992-0.202c-0.333-0.077-0.656-0.206-0.986-0.318c-0.337-0.1-0.644-0.271-0.961-0.426
		c-0.315-0.159-0.641-0.304-0.926-0.511l-0.874-0.59c-0.267-0.225-0.531-0.449-0.795-0.672c-0.55-0.422-0.964-0.96-1.416-1.428
		c-0.452-0.469-0.786-1.004-1.149-1.471c-0.373-0.461-0.63-0.97-0.902-1.405c-0.265-0.443-0.518-0.843-0.68-1.224
		c-0.179-0.374-0.335-0.7-0.463-0.97C232.301,171.248,232.169,170.933,232.169,170.933"/>
	<path clip-path="url(#SVGID_2_)" d="M307.471,183.143c0,0,0.312-0.065,0.896-0.188c0.584-0.121,1.445-0.295,2.529-0.556
		c1.086-0.244,2.406-0.541,3.92-0.881c1.514-0.333,3.201-0.812,5.052-1.276c1.844-0.49,3.856-0.956,5.942-1.613
		c2.09-0.627,4.302-1.267,6.596-1.91c2.295-0.657,4.64-1.432,7.039-2.167c2.393-0.747,4.824-1.506,7.257-2.266
		c9.731-3.03,19.455-6.084,26.778-8.271c3.666-1.085,6.694-2.072,8.857-2.624c2.165-0.543,3.484-0.593,3.484-0.593
		s-1.115,0.701-3.21,1.473c-2.099,0.762-5.156,1.65-8.795,2.818c-7.284,2.318-17.039,5.271-26.786,8.247
		c-2.438,0.743-4.876,1.486-7.275,2.217c-2.4,0.724-4.754,1.469-7.049,2.128c-2.302,0.668-4.531,1.296-6.65,1.869
		c-2.104,0.638-4.162,0.953-6.031,1.372c-1.877,0.377-3.584,0.774-5.118,1.035c-1.533,0.261-2.869,0.488-3.97,0.676
		c-1.1,0.188-1.967,0.303-2.561,0.383C307.786,183.098,307.471,183.143,307.471,183.143"/>
	<path clip-path="url(#SVGID_2_)" d="M421.904,151.641c0,0,0.344-0.17,0.965-0.398c0.617-0.245,1.516-0.541,2.612-0.814
		c1.089-0.304,2.393-0.513,3.779-0.779c0.693-0.128,1.417-0.23,2.148-0.35c0.732-0.109,1.473-0.248,2.222-0.338
		c1.496-0.177,2.99-0.37,4.401-0.452c0.703-0.043,1.386-0.084,2.032-0.123c0.646-0.031,1.254-0.096,1.82-0.069
		c2.261,0.025,3.761,0.071,3.761,0.071s-1.504,0.115-3.745,0.247c-0.561,0.018-1.165,0.129-1.805,0.183
		c-0.64,0.068-1.313,0.141-2.012,0.216c-1.396,0.139-2.869,0.434-4.355,0.611c-0.74,0.1-1.475,0.249-2.201,0.369
		c-0.726,0.13-1.44,0.242-2.13,0.38c-1.373,0.288-2.659,0.535-3.762,0.745c-1.107,0.197-2.036,0.327-2.692,0.399
		C422.286,151.612,421.904,151.64,421.904,151.641L421.904,151.641z"/>
	<path clip-path="url(#SVGID_2_)" d="M195.409,93.509c0,2.463,0.369,3.942,1.478,4.372c0.185,0.185,0.185,0.554-0.062,0.738
		c-0.738,0-1.847,0.247-3.018,0.556c-3.264,0.862-7.697,1.601-11.022,1.601c-7.33,0-14.042-1.006-18.784-5.81
		c-3.696-3.695-7.72-8.931-7.72-22.192c0-10.86,3.778-17.715,7.596-21.78c4.126-4.311,10.223-7.205,19.523-7.205
		c3.511,0,6.775,0.677,7.821,0.924c1.171,0.246,3.079,0.677,3.819,0.554c0,2.032,0.369,5.235,0.923,8.931
		c-0.185,0.491-1.293,0.554-1.663,0.185c-1.724-6.652-6.343-8.745-12.624-8.745c-11.949,0-19.236,15.685-19.236,24.922
		c0,16.675,8.149,28.309,20.529,28.309c3.818,0,6.097-0.801,6.774-1.848c0.308-0.432,0.616-1.539,0.616-3.51v-6.57
		c0-5.173-0.184-5.543-4.004-5.974l-2.708-0.308c-0.493-0.246-0.431-1.354,0-1.539c1.785,0.123,5.172,0.185,8.806,0.185
		c2.402,0,4.496-0.062,6.529-0.185c0.431,0.246,0.492,1.169,0.061,1.539l-0.986,0.123c-2.586,0.309-2.648,2.032-2.648,5.174V93.509z
		"/>
	<path clip-path="url(#SVGID_2_)" d="M221.618,64.419c-0.492-1.478-1.047-3.141-1.415-3.879h-0.125
		c-0.184,0.307-0.8,1.786-1.477,3.632l-8.006,25.683c-0.924,2.771-1.355,4.435-1.355,5.111c0,0.738,0.233,0.679,1.711,0.803
		l2.032,0.185c0.431,0.307,0.431,1.293-0.122,1.539c-1.602-0.123-3.464,0.193-6.331,0.245c-2.031,0.037-4.324,0.335-5.987,0.396
		c-0.368-0.247-0.492-1.231-0.122-1.54l2.032-0.184c1.478-0.124,2.907-1.013,3.769-3.23c1.109-2.833,11.701-33.44,11.701-33.44
		c0.862-2.218,1.232-3.387,1.047-4.373c1.478-0.431,2.526-1.54,3.203-2.34c0.369,0,0.8,0.123,0.924,0.554
		c0.8,2.71,1.785,5.543,2.709,8.253l8.437,26.811c1.787,5.297,2.588,6.22,5.236,6.527l1.662,0.185c0.431,0.309,0.309,1.293,0,1.54
		c-2.525-0.122-4.68-0.185-7.452-0.185c-2.956,0-5.297,0.123-7.082,0.185c-0.492-0.247-0.554-1.231-0.123-1.54l1.786-0.185
		c1.293-0.124,2.155-0.493,2.155-1.108c0-0.678-0.308-1.786-0.8-3.265L221.618,64.419z"/>
	<path clip-path="url(#SVGID_2_)" d="M253.15,72.118c0,1.109,0,1.786,0.185,2.033c0.185,0.184,1.108,0.307,4.249,0.307
		c2.217,0,4.558-0.246,6.343-1.601c1.663-1.293,3.079-3.449,3.079-7.636c0-4.865-3.017-9.485-9.853-9.485
		c-3.818,0-4.003,0.246-4.003,1.971V72.118z M248.101,63.311c0-5.851-0.185-6.897-2.709-7.205l-1.971-0.246
		c-0.431-0.309-0.431-1.294,0.061-1.54c3.449-0.308,7.698-0.493,13.734-0.493c3.818,0,7.452,0.309,10.285,1.849
		c2.956,1.539,5.111,4.31,5.111,8.622c0,5.85-4.618,9.052-7.698,10.284c-0.308,0.369,0,0.984,0.307,1.479
		c4.928,7.945,12.18,20.489,24.178,23.269c11.999,2.779,21.049-1.474,22.712-1.351c0.308,0.123,0.37,0.616,0.062,0.862
		c-0.555,0.185-7.57,4.071-21.171,3.383s-20.174-8.428-24.547-14.648c-1.602-2.276-4.127-6.526-6.036-9.298
		c-0.924-1.354-1.909-1.971-4.373-1.971c-2.771,0-2.894,0.061-2.894,1.354v9.813c0,6.468,0.123,7.205,3.695,7.699l1.294,0.184
		c0.369,0.309,0.246,1.354-0.124,1.54c-2.771-0.123-4.865-0.186-7.328-0.186c-2.587,0-4.804,0.062-7.698,0.186
		c-0.37-0.186-0.493-1.109-0.123-1.54l1.539-0.184c3.572-0.433,3.695-1.231,3.695-7.699V63.311z"/>
	<path clip-path="url(#SVGID_2_)" d="M292.874,84.004c0,3.265,0.185,5.234,1.232,6.713c1.354,1.907,3.695,2.524,7.574,2.524
		c11.948,0,17.307-7.822,17.307-19.276c0-6.774-3.265-18.229-19.399-18.229c-3.633,0-5.604,0.493-6.097,0.862
		c-0.493,0.37-0.616,1.909-0.616,4.681V84.004z M287.824,62.018c0-4.312-0.308-5.604-2.894-5.975l-1.355-0.184
		c-0.493-0.309-0.554-1.294,0.061-1.54c5.235-0.308,10.224-0.493,15.458-0.493c5.173,0,9.546,0.37,13.549,1.848
		c8.314,3.018,12.502,10.038,12.502,18.168c0,7.82-3.757,14.534-10.777,18.353c-4.004,2.156-9.053,2.957-13.795,2.957
		c-3.942,0-8.236-0.527-10.768-1.017c-2.653-0.513-5.878-1.348-7.592-3.57c-0.594-0.771,0.705-0.963,0.705-0.963
		c2.731,1.041,4.907,2.286,4.907-4.183V62.018z"/>
	<path clip-path="url(#SVGID_2_)" d="M365.916,85.215c0,1.847,0,9.176,0.184,10.777c-0.122,0.37-0.492,0.678-1.17,0.678
		c-0.738-1.048-2.524-3.203-7.883-9.3L342.76,70.085c-1.664-1.909-5.852-6.959-7.145-8.314h-0.123
		c-0.246,0.74-0.309,2.155-0.309,4.003v13.427c0,2.895,0.062,10.9,1.109,12.748c0.37,0.677,1.602,1.047,3.141,1.17l1.91,0.184
		c0.369,0.494,0.308,1.232-0.123,1.54c-2.772-0.122-4.928-0.184-7.207-0.184c-2.586,0-4.248,0.062-6.404,0.184
		c-0.432-0.308-0.492-1.17-0.123-1.54l1.663-0.184c1.416-0.185,2.401-0.555,2.709-1.231c0.862-2.217,0.801-9.73,0.801-12.687V61.403
		c0-1.725-0.062-3.019-1.354-4.436c-0.862-0.862-2.34-1.293-3.818-1.477l-1.047-0.124c-0.37-0.37-0.37-1.293,0.124-1.539
		c2.586,0.184,5.85,0.184,6.958,0.184c0.986,0,2.033-0.061,2.833-0.184c1.231,3.14,8.499,11.27,10.53,13.548l5.976,6.713
		c4.249,4.742,7.267,9.217,10.161,12.174h0.123c0.246-0.308,0.246-1.294,0.246-2.587V69.469c0-2.895-0.062-16.033-1.231-17.88
		c-0.37-0.554-1.786-1.354-1.786-1.354c-0.431-0.37-0.369-1.355,0.123-1.54c2.833,0.124,7.411-5.01,9.506-5.133
		c0.491,0.309,0.491,1.17,0.123,1.54c0,0-3.039,2.977-3.285,3.47c-1.047,2.217-0.924,18.064-0.924,20.897V85.215z"/>
	<path clip-path="url(#SVGID_2_)" d="M377.926,63.25c0-6.405-0.123-7.329-3.757-7.76l-0.984-0.123
		c-0.369-0.247-0.246-1.355,0.123-1.54c2.647,0.124,4.741,0.185,7.267,0.185h11.578c3.941,0,7.575,0,8.313-0.185
		c0.37,1.047,0.739,5.482,0.986,8.191c-0.247,0.369-1.232,0.492-1.54,0.123c-0.923-2.895-1.478-5.051-4.68-5.851
		c-1.294-0.309-3.265-0.37-5.975-0.37h-4.434c-1.848,0-1.848,0.123-1.848,2.464v12.317c0,1.724,0.185,1.724,2.031,1.724h3.573
		c2.586,0,4.495-0.123,5.234-0.369s1.17-0.615,1.478-2.155l0.493-2.525c0.308-0.37,1.355-0.37,1.601,0.062
		c0,1.479-0.245,3.88-0.245,6.221c0,2.217,0.245,4.557,0.245,5.912C397.142,80,396.094,80,395.786,79.63l-0.554-2.4
		c-0.247-1.108-0.678-2.032-1.91-2.341c-0.862-0.246-2.34-0.308-4.741-0.308h-3.573c-1.847,0-2.031,0.062-2.031,1.662v10.737
		c0,3.264,0.185,5.357,1.17,6.403c0.738,0.74,2.033,1.418,7.452,1.418c4.741,0,6.62,0.499,7.976-0.178
		c1.109-0.616,2.771-2.771,4.372-5.973c0.432-0.31,1.294-0.124,1.54,0.431c-0.431,2.155-1.971,6.897-2.771,8.562
		c-5.543-0.125-11.116-0.934-16.598-0.934h-5.543c-2.648,0-4.742,0.062-8.376,0.186c-0.369-0.186-0.492-1.17-0.123-1.54l2.033-0.185
		c3.51-0.308,3.817-1.23,3.817-7.698V63.25z"/>
	<path clip-path="url(#SVGID_2_)" d="M418.943,72.118c0,1.109,0,1.786,0.186,2.033c0.184,0.184,1.107,0.307,4.249,0.307
		c2.217,0,4.558-0.246,6.343-1.601c1.663-1.293,3.079-3.449,3.079-7.636c0-4.865-3.018-9.485-9.854-9.485
		c-3.817,0-4.003,0.246-4.003,1.971V72.118z M413.894,63.311c0-5.851-0.184-6.897-2.709-7.205l-1.971-0.246
		c-0.432-0.309-0.432-1.294,0.061-1.54c3.449-0.308,7.698-0.493,13.734-0.493c3.817,0,7.452,0.309,10.285,1.849
		c2.956,1.539,5.11,4.31,5.11,8.622c0,5.85-4.619,9.052-7.699,10.284c-0.307,0.369,0,0.984,0.31,1.479
		c4.927,7.945,9.217,19.029,13.405,22.54c1.047,0.924,2.587,1.602,4.25,1.724c0.307,0.124,0.367,0.616,0.061,0.862
		c-0.555,0.185-1.54,0.309-2.71,0.309c-5.234,0-8.376-1.54-12.748-7.761c-1.601-2.277-5.153-12.686-7.061-15.457
		c-0.926-1.354-1.91-1.971-4.374-1.971c-2.771,0-2.895,0.061-2.895,1.354v11.866c0,6.467,0.123,7.205,3.695,7.699l1.293,0.184
		c0.37,0.31,0.247,1.355-0.123,1.54c-2.771-0.123-4.865-0.185-7.329-0.185c-2.586,0-4.803,0.062-7.697,0.185
		c-0.37-0.185-0.492-1.108-0.124-1.54l1.54-0.184c3.572-0.433,3.695-1.232,3.695-7.699V63.311z"/>
	<path clip-path="url(#SVGID_2_)" d="M380.388,74.434c-1.296,0.029-2.716,0.075-4.511,0.136c-0.369-0.185-0.492-1.17-0.123-1.539
		l2.033-0.186c0.966-0.084,1.69-0.216,2.23-0.497"/>
	<path clip-path="url(#SVGID_2_)" d="M417.341,76.23c-1.296,0.03-2.716,0.076-4.511,0.136c-0.369-0.184-0.492-1.169-0.123-1.539
		l2.033-0.185c0.966-0.084,1.689-0.216,2.23-0.497"/>
	<path clip-path="url(#SVGID_2_)" d="M251.568,76.571c-1.297,0.031-2.716,0.076-4.511,0.138c-0.369-0.185-0.493-1.171-0.124-1.539
		l2.033-0.186c0.966-0.085,1.69-0.215,2.231-0.496"/>
	<path clip-path="url(#SVGID_2_)" d="M229.627,76.956c-1.297,0.031-18.113,0.076-19.908,0.138c-0.369-0.185-0.493-1.171-0.124-1.538
		l2.033-0.187c0.966-0.085,17.087-0.215,17.628-0.496"/>
	<path clip-path="url(#SVGID_2_)" d="M161.002,93.477c0,0,0.368,0.486,1.106,1.243c0.728,0.766,1.845,1.786,3.307,2.833
		c1.444,1.067,3.267,2.123,5.338,2.952c2.063,0.846,4.377,1.452,6.733,1.743c1.176,0.157,2.365,0.214,3.534,0.22
		c1.18,0.023,2.306-0.064,3.448-0.155c2.241-0.177,4.323-0.438,6.083-0.805c0.882-0.172,1.668-0.414,2.374-0.607
		c0.703-0.201,1.305-0.424,1.802-0.608c0.493-0.191,0.888-0.339,1.17-0.407c0.277-0.079,0.436-0.069,0.432-0.078
		c0.003,0.009-0.153,0.027-0.406,0.152c-0.257,0.116-0.615,0.327-1.086,0.577c-0.932,0.513-2.325,1.194-4.102,1.695
		c-1.763,0.548-3.883,0.954-6.169,1.193c-1.12,0.107-2.34,0.213-3.548,0.2c-1.217,0.01-2.454-0.081-3.68-0.25
		c-1.228-0.157-2.444-0.411-3.611-0.757c-1.169-0.343-2.304-0.741-3.352-1.235c-2.102-0.982-3.914-2.179-5.329-3.355
		c-1.41-1.189-2.426-2.341-3.091-3.175C161.301,94.009,161.002,93.477,161.002,93.477"/>
	<path clip-path="url(#SVGID_2_)" d="M269.808,93.477c0,0,0.473,0.544,1.385,1.402c0.903,0.868,2.28,2.016,4.034,3.23
		c3.48,2.444,8.769,4.845,14.397,5.396c1.399,0.159,2.809,0.202,4.196,0.166c1.425-0.034,2.763-0.114,4.099-0.244
		c2.651-0.263,5.113-0.681,7.192-1.184c2.077-0.51,3.794-1.018,4.966-1.462c1.178-0.427,1.816-0.763,1.816-0.763
		s-0.152,0.099-0.436,0.279c-0.293,0.171-0.721,0.424-1.291,0.695c-1.142,0.534-2.799,1.276-4.881,1.89
		c-2.079,0.608-4.546,1.245-7.249,1.571c-1.338,0.169-2.777,0.311-4.176,0.344c-1.438,0.046-2.905,0.033-4.361-0.141
		c-2.911-0.321-5.77-1.091-8.272-2.203c-2.513-1.098-4.662-2.501-6.382-3.827c-1.724-1.332-2.97-2.657-3.81-3.595
		C270.203,94.082,269.808,93.477,269.808,93.477"/>
	<path clip-path="url(#SVGID_2_)" d="M200.435,99.379c0,0,0.788-0.199,1.972-0.369c1.184-0.177,2.764-0.33,4.347-0.403
		c1.582-0.073,3.167-0.065,4.357-0.002c1.189,0.056,1.984,0.176,1.984,0.176s-0.788,0.193-1.972,0.362
		c-1.184,0.176-2.765,0.333-4.347,0.41c-1.583,0.076-3.167,0.073-4.356,0.007C201.23,99.503,200.435,99.379,200.435,99.379"/>
	<path clip-path="url(#SVGID_2_)" d="M226.311,98.096c0,0,0.909-0.153,2.271-0.254c0.678-0.048,1.47-0.103,2.319-0.163
		c0.846-0.059,1.747-0.083,2.649-0.109c1.821-0.002,3.631-0.017,5.002,0.182c1.367,0.158,2.258,0.345,2.258,0.345
		s-0.92,0.126-2.272,0.193c-0.675,0.025-1.463,0.074-2.311,0.131c-0.848,0.052-1.751,0.075-2.655,0.097
		c-1.82,0.025-3.646,0.031-5-0.125C227.215,98.266,226.311,98.096,226.311,98.096"/>
	<path clip-path="url(#SVGID_2_)" d="M242.991,97.968c0,0,0.245-0.039,0.672-0.082c0.427-0.034,1.036-0.113,1.768-0.153
		c0.73-0.04,1.58-0.086,2.492-0.137c0.91-0.045,1.88-0.057,2.85-0.069c1.952,0.021,3.897,0.047,5.364,0.247
		c1.463,0.184,2.421,0.365,2.421,0.365s-0.986,0.105-2.439,0.173c-0.726,0.021-1.574,0.064-2.486,0.106
		c-0.912,0.039-1.883,0.049-2.853,0.057c-1.953,0.001-3.909-0.032-5.363-0.191c-0.728-0.064-1.334-0.164-1.759-0.212
		C243.234,98.015,242.991,97.968,242.991,97.968"/>
	<path clip-path="url(#SVGID_2_)" d="M327.675,96.171c0,0,0.838-0.223,2.106-0.428c0.637-0.094,1.391-0.153,2.198-0.209
		c0.808-0.055,1.679-0.101,2.534-0.094c0.859,0.012,1.718,0.026,2.523,0.068c0.804,0.024,1.558,0.119,2.199,0.21
		c1.285,0.171,2.125,0.366,2.125,0.366s-0.869,0.118-2.15,0.172c-0.319,0.011-0.666,0.022-1.032,0.034
		c-0.364-0.003-0.754,0.044-1.154,0.048c-0.799,0.036-1.653,0.045-2.506,0.05c-0.856-0.022-1.698,0.013-2.496-0.015
		c-0.796-0.008-1.541-0.054-2.187-0.083C328.545,96.271,327.675,96.171,327.675,96.171"/>
	<path clip-path="url(#SVGID_2_)" d="M408.466,100.321c0,0,0.893-0.213,2.244-0.405c0.678-0.084,1.479-0.13,2.339-0.173
		c0.856-0.042,1.785-0.076,2.692-0.057c1.824,0.043,3.646,0.118,5.009,0.335c1.363,0.182,2.258,0.386,2.258,0.386
		s-0.922,0.109-2.285,0.151c-0.68,0.019-1.475,0.04-2.324,0.062c-0.852,0.025-1.758,0.021-2.667,0.015
		c-0.91-0.033-1.802-0.012-2.649-0.052c-0.846-0.021-1.637-0.079-2.321-0.118C409.389,100.43,408.466,100.321,408.466,100.321"/>
	<path clip-path="url(#SVGID_2_)" d="M431.989,93.092c0,0,0.206,0.272,0.549,0.76c0.169,0.245,0.375,0.542,0.61,0.884
		c0.226,0.35,0.532,0.699,0.833,1.104c0.317,0.391,0.611,0.847,1.005,1.268c0.391,0.421,0.754,0.908,1.203,1.34
		c0.45,0.426,0.882,0.907,1.396,1.299l0.754,0.618l0.817,0.537c0.262,0.198,0.559,0.332,0.844,0.482
		c0.288,0.147,0.569,0.312,0.873,0.405c0.301,0.102,0.589,0.242,0.889,0.325c0.304,0.077,0.604,0.153,0.898,0.229
		c0.6,0.087,1.184,0.188,1.75,0.186c0.562,0.021,1.1-0.013,1.596-0.063c0.993-0.095,1.819-0.289,2.396-0.423
		c0.578-0.144,0.908-0.225,0.908-0.225s-0.303,0.155-0.85,0.397c-0.279,0.105-0.612,0.26-1.009,0.389
		c-0.396,0.143-0.849,0.287-1.358,0.394c-0.506,0.109-1.069,0.214-1.671,0.232c-0.604,0.048-1.243,0.008-1.903-0.067
		c-0.324-0.066-0.655-0.134-0.991-0.202c-0.333-0.078-0.656-0.207-0.986-0.319c-0.337-0.1-0.644-0.271-0.961-0.426
		c-0.315-0.159-0.64-0.303-0.926-0.51l-0.874-0.59c-0.268-0.226-0.531-0.45-0.794-0.672c-0.55-0.423-0.964-0.961-1.417-1.429
		c-0.451-0.469-0.786-1.004-1.149-1.471c-0.372-0.461-0.629-0.969-0.902-1.405c-0.264-0.442-0.517-0.843-0.68-1.224
		c-0.178-0.374-0.335-0.7-0.463-0.969C432.121,93.408,431.989,93.092,431.989,93.092"/>
	<path clip-path="url(#SVGID_2_)" d="M372.197,98.182c0,0,0.473-0.045,1.301-0.124c0.832-0.046,2.012-0.213,3.44-0.23
		c1.431-0.021,3.102-0.085,4.896-0.087c0.896,0.002,1.828-0.022,2.767,0.008c0.938,0.025,1.89,0.053,2.844,0.078
		c1.905,0.071,3.811,0.145,5.595,0.242c0.894,0.027,1.753,0.142,2.571,0.207c0.816,0.076,1.588,0.149,2.301,0.215
		c1.424,0.131,2.607,0.29,3.438,0.378c0.827,0.107,1.299,0.17,1.299,0.17s-0.477,0.004-1.313,0.013
		c-0.835-0.011-2.028,0.008-3.456-0.032c-2.853-0.067-6.657-0.155-10.462-0.244c-1.898-0.065-3.797-0.131-5.576-0.191
		c-1.776-0.05-3.438-0.156-4.864-0.218c-1.434-0.05-2.627-0.093-3.463-0.122C372.677,98.204,372.197,98.182,372.197,98.182"/>
	<path clip-path="url(#SVGID_2_)" d="M385.424,132.559c0.271-0.188,0.689-0.423,1.044-0.732c1.939-1.685,3.162-3.858,4.123-6.19
		c0.266-0.644,0.719-1.483-0.076-1.99c-0.815-0.52-1.428,0.203-1.936,0.747c-1.688,1.812-2.888,3.944-3.885,6.192
		c-0.177,0.398-0.237,0.864-0.278,1.308C384.36,132.493,384.703,132.693,385.424,132.559 M354.585,140.558
		c0.243-0.169,0.632-0.396,0.97-0.687c1.941-1.682,3.16-3.858,4.129-6.188c0.269-0.644,0.722-1.479-0.057-1.997
		c-0.809-0.54-1.424,0.183-1.934,0.725c-1.698,1.807-2.889,3.941-3.891,6.188c-0.18,0.399-0.254,0.864-0.289,1.305
		C353.461,140.551,353.827,140.752,354.585,140.558 M351.686,137.684c-0.176,0.173-0.321,0.314-0.504,0.492
		c-0.055-0.128-0.123-0.222-0.103-0.257c0.351-0.574,0.667-1.176,1.078-1.703c1.497-1.92,3.211-3.605,5.413-4.722
		c0.248-0.127,0.511-0.236,0.779-0.312c1.25-0.354,1.723-0.098,2.178,1.189c0.433-0.572,0.812-1.156,1.277-1.665
		c0.479-0.524,1.062-0.903,2.016-0.662c-0.41,0.876-0.796,1.673-1.158,2.48c-0.63,1.412-1.285,2.817-1.85,4.256
		c-0.206,0.529-0.646,1.279,0.025,1.656c0.25,0.14,1.078-0.381,1.391-0.792c1.5-1.966,2.912-3.997,4.355-6.005
		c0.868-1.207,1.668-2.472,3.006-3.252c0.549-0.32,1.11-0.501,1.653-0.121c0.603,0.421,0.571,1.099,0.365,1.692
		c-0.441,1.274-0.962,2.521-1.448,3.779c-0.107,0.275-0.208,0.553-0.214,0.877c1.153-1.542,2.225-3.151,3.483-4.602
		c1.095-1.263,2.357-2.394,3.629-3.486c0.632-0.543,1.517-0.789,2.256-0.19c0.73,0.59,0.39,1.404,0.11,2.105
		c-0.562,1.409-1.218,2.784-1.749,4.205c-0.165,0.441-0.052,0.987-0.066,1.486c0.455-0.227,1.041-0.34,1.342-0.697
		c1.197-1.412,2.348-2.868,3.433-4.368c1.688-2.327,3.62-4.362,6.224-5.67c0.249-0.126,0.519-0.217,0.79-0.287
		c1.065-0.273,1.547-0.025,2.025,1.128c0.239-0.559,0.444-1.027,0.639-1.502c1.661-2.761,0.502-1.093,3.505-5.908
		c0.706-1.129,1.34-1.523,2.417-1.357c-0.118,0.239-0.215,0.457-0.329,0.666c-3.815,6.94-3.049,4.861-5.821,12.282
		c-0.137,0.366-0.292,0.743-0.327,1.128c-0.027,0.299,0.118,0.612,0.187,0.919c0.28-0.084,0.638-0.088,0.826-0.269
		c0.605-0.58,1.191-1.191,1.707-1.854c0.709-0.909,1.342-1.877,2.01-2.816c0.169-0.235,0.353-0.462,0.688-0.601
		c-0.051,0.167-0.063,0.363-0.16,0.497c-1.283,1.738-2.525,3.512-3.898,5.178c-0.472,0.574-1.236,0.981-1.945,1.268
		c-1.213,0.49-2.076-0.289-1.861-1.574c0.035-0.218,0.092-0.431,0.161-0.757c-0.796,0.878-1.462,1.732-2.256,2.445
		c-0.655,0.591-1.416,1.118-2.215,1.488c-1.393,0.644-2.603-0.198-2.548-1.735c0.025-0.679,0.234-1.352,0.366-2.059
		c-0.782,1.068-1.463,2.204-2.348,3.148c-0.888,0.95-1.915,1.811-3.01,2.508c-0.463,0.295-1.365,0.286-1.872,0.029
		c-0.66-0.334-0.593-1.205-0.357-1.839c0.496-1.342,1.096-2.646,1.67-3.959c0.225-0.515,0.521-1.001,0.728-1.521
		c0.09-0.229,0.034-0.516,0.045-0.775c-0.254,0.048-0.593,0.008-0.748,0.158c-1.029,0.991-2.116,1.944-3.003,3.056
		c-1.611,2.022-3.072,4.164-4.654,6.21c-0.369,0.479-0.924,0.891-1.479,1.129c-0.674,0.29-0.927,0.036-0.702-0.668
		c0.484-1.526,1.028-3.034,1.583-4.537c0.3-0.817,0.691-1.602,1.001-2.415c0.076-0.199-0.002-0.458-0.01-0.688
		c-0.221,0.072-0.529,0.076-0.646,0.227c-1.102,1.419-2.166,2.867-3.248,4.3c-1.151,1.522-2.26,3.085-3.496,4.535
		c-0.485,0.57-1.225,1.003-1.932,1.278c-0.447,0.172-1.191,0.11-1.547-0.17c-0.31-0.247-0.285-0.941-0.363-1.444
		c-0.026-0.174,0.082-0.37,0.164-0.694c-0.801,0.882-1.451,1.713-2.219,2.413c-0.632,0.577-1.357,1.095-2.124,1.473
		c-1.577,0.779-2.849-0.147-2.685-1.912C351.369,138.921,351.551,138.334,351.686,137.684"/>
	<path clip-path="url(#SVGID_2_)" d="M383.785,149.226c-0.843,1.232-1.745,2.414-3.104,3.143c-0.653,0.35-1.339,0.573-1.985,0.092
		c-0.633-0.475-0.635-1.261-0.383-1.864c0.657-1.574,1.434-3.102,2.202-4.625c0.347-0.691,0.793-1.333,1.316-2.198
		c-0.495,0-0.754-0.04-0.997,0.008c-1.545,0.312-2.625,1.026-3.362,2.6c-1.294,2.767-2.665,5.545-4.791,7.812
		c-0.58,0.617-1.312,1.158-2.075,1.52c-1.371,0.647-2.242,0.063-2.162-1.441c0.059-1.055,0.336-2.099,0.533-3.145
		c0.062-0.325,0.186-0.638,0.15-1.021c-0.665,1.103-1.281,2.234-2.003,3.298c-1.683,2.477-3.692,4.604-6.567,5.713
		c-0.417,0.161-0.857,0.286-1.299,0.357c-1.378,0.219-2.292-0.354-2.723-1.671c-0.068-0.21-0.116-0.427-0.183-0.674
		c-0.956,1.227-1.767,2.456-2.776,3.489c-0.59,0.605-1.457,1.028-2.276,1.297c-0.761,0.247-1.36-0.237-1.365-1.051
		c-0.003-0.821,0.181-1.656,0.378-2.463c0.135-0.556,0.432-1.072,0.512-1.696c-0.477,0.701-0.928,1.422-1.438,2.102
		c-1.091,1.46-2.182,2.924-3.339,4.334c-0.36,0.438-0.897,0.771-1.412,1.035c-1.324,0.675-2.403,0.021-2.265-1.44
		c0.093-0.961,0.432-1.912,0.763-2.832c0.369-1.027,0.854-2.015,1.187-3.104c-0.429,0.609-0.871,1.21-1.283,1.832
		c-1.395,2.109-2.715,4.271-4.199,6.315c-0.555,0.763-1.42,1.362-2.256,1.837c-1.287,0.732-2.338,0.116-2.223-1.355
		c0.121-1.553,0.53-3.083,0.812-4.621c-0.458,0.797-0.896,1.676-1.439,2.485c-1.113,1.649-2.234,3.3-3.453,4.87
		c-0.427,0.55-1.112,0.947-1.752,1.271c-1.274,0.646-2.267,0.058-2.172-1.358c0.082-1.248,0.426-2.479,0.67-3.716
		c0.059-0.297,0.185-0.582,0.154-0.949c-0.461,0.777-0.92,1.555-1.379,2.331c-0.1-0.059-0.198-0.116-0.296-0.176
		c0.333-0.581,0.625-1.189,1.007-1.736c2.035-2.903,2.829-6.355,4.26-9.525c1.424-3.153,2.889-6.29,4.379-9.412
		c0.414-0.868,1.012-1.617,2.312-1.579c-0.157,0.396-0.259,0.697-0.392,0.985c-2.666,5.81-5.178,11.682-7.1,17.786
		c-0.447,1.418-0.754,2.881-1.107,4.326c-0.065,0.268-0.084,0.561-0.055,0.834c0.08,0.727,0.532,0.959,1.092,0.483
		c0.592-0.504,1.145-1.091,1.588-1.728c2.826-4.055,5.1-8.374,6.828-13.031c1.348-3.629,3.152-7.091,4.795-10.607
		c0.418-0.896,1.015-1.691,2.347-1.674c-0.132,0.353-0.216,0.627-0.334,0.885c-2.444,5.354-4.8,10.744-6.63,16.345
		c-0.637,1.944-1.094,3.948-1.614,5.932c-0.07,0.264-0.084,0.56-0.047,0.831c0.094,0.674,0.532,0.894,1.054,0.45
		c0.594-0.504,1.156-1.084,1.592-1.726c1.627-2.396,3.178-4.845,4.795-7.248c0.729-1.084,1.73-1.807,3.246-1.953
		c-0.158,0.467-0.283,0.846-0.418,1.223c-0.682,1.903-1.367,3.808-2.048,5.715c-0.058,0.157-0.123,0.334-0.104,0.491
		c0.045,0.366,0.14,0.725,0.213,1.086c0.344-0.143,0.812-0.188,1.008-0.444c1.283-1.669,2.541-3.362,3.742-5.092
		c0.962-1.386,1.822-2.841,2.744-4.254c0.516-0.79,1.188-1.312,2.334-1.165c-0.108,0.391-0.174,0.71-0.283,1.012
		c-0.721,1.983-1.451,3.962-2.176,5.942c-0.058,0.158-0.143,0.33-0.129,0.485c0.033,0.369,0.117,0.732,0.182,1.1
		c0.344-0.134,0.824-0.167,1.01-0.417c1.004-1.349,1.932-2.753,2.895-4.132c0.332-0.477,0.606-1.055,1.06-1.361
		c0.327-0.224,1.079-0.268,1.325-0.044c0.259,0.235,0.268,0.918,0.156,1.345c-0.115,0.434-0.522,0.785-0.783,1.186
		c-0.383,0.592-0.529,1.253-0.008,1.791c0.549,0.565,1.258,0.394,1.869,0.042c1.145-0.658,1.633-1.804,1.848-2.994
		c0.33-1.847,0.486-3.723,0.641-5.619c-1.126,1.353-1.975,2.911-3.311,4.048c-0.111-0.067-0.221-0.135-0.332-0.202
		c0.135-0.125,0.302-0.231,0.4-0.381c1.258-1.892,2.537-3.771,3.744-5.694c0.646-1.028,1.247-1.497,2.207-1.292
		c-0.425,0.553-0.773,1.081-1.197,1.54c-0.498,0.541-0.591,1.098-0.339,1.78c0.292,0.791,0.581,1.592,0.767,2.412
		c0.304,1.345,0.102,2.659-0.481,3.924c2.847-2.384,4.208-5.762,6.005-8.937c-0.634,0.206-1.27,0.413-1.904,0.621
		c-0.039-0.094-0.078-0.188-0.117-0.281c0.611-0.276,1.24-0.515,1.82-0.845c0.327-0.188,0.67-0.48,0.832-0.812
		c1.172-2.4,2.261-4.841,3.459-7.229c0.422-0.839,1.039-1.619,2.22-1.521c-1.193,2.809-2.366,5.57-3.538,8.331
		c0.055,0.077,0.108,0.154,0.165,0.231c1.046-0.343,2.092-0.685,3.138-1.026c0.038,0.097,0.075,0.196,0.112,0.294
		c-0.217,0.125-0.42,0.281-0.651,0.37c-0.473,0.181-0.948,0.384-1.442,0.476c-1.232,0.226-1.857,0.943-2.1,2.161
		c-0.301,1.516-0.729,3.003-1.083,4.509c-0.07,0.296-0.095,0.617-0.075,0.921c0.046,0.677,0.491,0.955,1.022,0.549
		c0.592-0.453,1.178-0.994,1.565-1.621c1.596-2.58,3.115-5.206,4.632-7.765c-0.779-0.874-0.822-1.467-0.28-2.227
		c0.551-0.773,1.402-1.071,2.188-0.729c-0.197,0.368-0.43,0.721-0.58,1.104c-0.082,0.211-0.121,0.548-0.007,0.695
		c0.104,0.133,0.45,0.142,0.673,0.105c0.609-0.101,1.204-0.304,1.815-0.373c0.897-0.104,1.314,0.367,1.018,1.221
		c-0.423,1.22-0.976,2.395-1.44,3.601c-0.221,0.576-0.424,1.17-0.521,1.775c-0.059,0.366,0.103,0.77,0.164,1.156
		c0.351-0.188,0.81-0.291,1.032-0.577"/>
	<path clip-path="url(#SVGID_2_)" d="M319.121,159.223c-0.217,1.411-1.707,2.087-2.711,1.982c-1.063-0.109-1.785-0.932-1.855-2.146
		c-0.071-1.192,0.433-2.188,1.104-3.115c1.768-2.441,4.238-4.063,6.698-5.687c1.871-1.234,3.772-2.421,5.675-3.608
		c0.176-0.108,0.448-0.061,0.676-0.085c-0.039,0.203-0.01,0.47-0.129,0.6c-2.211,2.442-2.91,5.547-3.723,8.582
		c-1.166,4.37-2.589,8.623-5.049,12.462c-2.516,3.922-5.832,6.854-10.408,8.065c-1.236,0.329-2.632,0.389-3.9,0.202
		c-2.047-0.303-3.077-2.275-2.438-4.205c0.292-0.881,0.933-1.417,1.765-1.681c1.201-0.38,2.243,0.554,2.004,1.806
		c-0.101,0.535-0.407,1.038-0.641,1.544c-0.513,1.102-0.117,1.9,1.091,2.08c1.497,0.223,2.838-0.327,4.104-1.011
		c3.1-1.673,5.18-4.353,6.594-7.456c1.757-3.859,3.251-7.843,4.779-11.802c1.002-2.589,2.138-5.081,3.934-7.227
		c0.047-0.057,0.066-0.136-0.007-0.344c-1.073,0.676-2.151,1.346-3.22,2.026c-2.139,1.359-4.233,2.792-5.836,4.782
		c-0.658,0.817-1.082,1.824-1.605,2.749c-0.068,0.12-0.1,0.263-0.133,0.398c-0.25,1.015,0.035,2.055,0.643,2.36
		c0.639,0.32,1.463,0.016,2.206-0.817C318.828,159.58,318.912,159.473,319.121,159.223"/>
	<path clip-path="url(#SVGID_2_)" d="M393.881,141.525c-0.109,0.71-0.352,1.416-0.639,2.079c-0.852,1.964-1.856,3.843-3.463,5.315
		c-0.347,0.316-0.75,0.572-0.997,0.757c-0.739,0.191-1.077-0.029-1.052-0.61c0.02-0.468,0.084-0.961,0.257-1.391
		c0.901-2.247,1.997-4.394,3.573-6.255c0.267-0.315,0.592-0.612,0.95-0.81C393.341,140.156,394.028,140.596,393.881,141.525
		 M398.078,144.085c-0.641,0.986-1.386,1.911-2.15,2.806c-0.214,0.251-0.666,0.296-1.01,0.436c-0.06-0.364-0.201-0.734-0.162-1.087
		c0.05-0.47,0.205-0.937,0.377-1.379c0.49-1.259,1.012-2.505,1.521-3.757c0.31-0.76,0.622-1.52,1-2.443
		c-1.93,0.032-2.43,1.479-3.224,2.607c-0.477-1.277-0.989-1.553-2.162-1.151c-0.5,0.17-0.979,0.426-1.422,0.714
		c-2.511,1.627-4.268,3.938-5.871,6.412c-0.837,1.292-1.812,2.501-2.782,3.699l1.633-1.152c0.689-0.967,1.328-1.972,2.031-3.022
		c-0.134,0.79-0.325,1.473-0.347,2.16c-0.047,1.565,1.23,2.414,2.623,1.7c0.785-0.401,1.52-0.961,2.15-1.578
		c0.765-0.745,1.396-1.627,2.177-2.555c-0.07,0.314-0.172,0.511-0.139,0.683c0.094,0.501,0.091,1.196,0.411,1.433
		c0.361,0.27,1.109,0.308,1.549,0.118c0.7-0.299,1.388-0.776,1.889-1.347c0.87-0.987,1.63-2.077,2.364-3.173"/>
	<path clip-path="url(#SVGID_2_)" d="M397.995,145.068c0.818-1.121,1.554-2.301,2.324-3.455c0.01,0.403-0.146,0.727-0.229,1.068
		c-0.276,1.113-0.634,2.223-0.756,3.355c-0.131,1.215,0.686,1.874,1.794,1.455c0.869-0.328,1.811-0.782,2.402-1.456
		c1.365-1.556,2.545-3.277,3.787-4.942c0.797-1.064,1.57-2.148,2.353-3.224c-0.361,1.114-0.933,2.089-1.352,3.127
		c-0.396,0.979-0.756,2.006-0.901,3.043c-0.154,1.11,0.643,1.715,1.7,1.388c0.603-0.185,1.267-0.447,1.687-0.884l0.584-1.249
		c-0.272,0.326-0.853,0.399-1.29,0.588c-0.018-0.447-0.16-0.938-0.027-1.338c0.36-1.091,0.808-2.156,1.273-3.211
		c0.553-1.25,1.159-2.476,1.754-3.74c-1.122-0.145-2.204,0.26-3.087,1.335c-1.193,1.453-2.273,3-3.418,4.494
		c-1.006,1.315-1.995,2.647-3.08,3.895c-0.293,0.335-0.908,0.391-1.375,0.575c-0.069-0.47-0.282-0.972-0.184-1.4
		c0.29-1.258,0.797-2.469,1.047-3.732c0.399-2.023,1.605-3.004,3.593-3.203c0.381-0.038,0.743-0.243,1.116-0.372
		c-0.029-0.115-0.059-0.23-0.089-0.344c-1.067,0.278-2.135,0.557-3.203,0.833c-0.055-0.082-0.109-0.164-0.167-0.247
		c1.34-2.68,2.678-5.36,4.12-8.253c-0.458,0.119-0.841,0.12-1.087,0.306c-0.484,0.362-1.021,0.757-1.314,1.266
		c-1.324,2.289-2.554,4.631-3.86,6.928c-0.193,0.341-0.585,0.618-0.948,0.8c-0.567,0.283-1.189,0.46-1.79,0.682
		c0.034,0.105,0.067,0.212,0.104,0.318c0.64-0.166,1.279-0.333,1.92-0.499c-1.221,2.101-2.499,4.053-3.851,5.951"/>
	<path clip-path="url(#SVGID_2_)" d="M424.896,139.266c-0.371,0.412-0.997,0.593-1.508,0.881c-0.093-0.101-0.188-0.198-0.279-0.297
		c0.331-0.44,0.761-0.838,0.972-1.332c0.405-0.94,0.821-1.914,0.979-2.914c0.158-1.007-0.592-1.73-1.572-1.784
		c0.077,0.39,0.197,0.77,0.213,1.152c0.013,0.285-0.012,0.678-0.188,0.847c-1.004,0.97-1.537,2.123-1.59,3.515
		c-0.008,0.185-0.094,0.4-0.215,0.539c-0.884,1.012-1.73,2.066-2.712,2.975c-0.356,0.334-1.047,0.31-1.587,0.448
		c-0.056-0.557-0.318-1.197-0.132-1.654c0.573-1.397,1.197-2.804,2.031-4.053c0.87-1.308,2.005-2.438,3.052-3.678
		c-0.277,0.054-0.604,0.072-0.894,0.185c-2.848,1.098-4.954,3.126-6.845,5.436c-1.137,1.391-2.296,2.766-3.518,4.083l-0.656,1.213
		c1.15-1.062,2.209-2.227,3.258-3.395c0.585-0.652,1.076-1.391,1.608-2.091c-0.043,0.541-0.246,0.995-0.358,1.474
		c-0.58,2.444,0.86,3.871,3.188,2.966c1.321-0.515,2.485-1.477,3.65-2.333c0.597-0.438,1.027-0.987,1.891-1.068
		c0.578-0.053,1.184-0.511,1.652-0.929"/>
	<path clip-path="url(#SVGID_2_)" d="M443.535,136.01c-1.095,1.047-2.192,2.094-3.352,3.068c-0.286,0.241-0.8,0.21-1.209,0.305
		c0.045-0.396-0.011-0.843,0.156-1.179c0.435-0.878,0.985-1.7,1.458-2.562c0.472-0.858,1.005-1.704,1.324-2.62
		c0.306-0.885-0.14-1.513-1.061-1.462c-0.774,0.042-1.661,0.256-2.267,0.704c-1.551,1.148-3.009,2.433-4.437,3.735
		c-0.979,0.896-1.844,1.912-2.759,2.877c0.63-1.437,1.396-2.769,2.099-4.134c0.324-0.631,0.582-1.379-0.025-1.966
		c-0.636-0.613-1.374-0.288-2.033,0.061c-0.394,0.208-0.784,0.458-1.11,0.759c-0.698,0.649-1.366,1.334-2.028,2.023
		c-1.164,1.215-2.279,2.48-3.491,3.645l0.425,0.217c0.662-0.507,1.227-1.149,1.812-1.755c1.151-1.19,2.271-2.414,3.447-3.579
		c0.23-0.228,0.663-0.252,1.003-0.369c-0.089,0.331-0.116,0.694-0.273,0.987c-0.425,0.792-0.938,1.54-1.357,2.334
		c-0.67,1.268-1.322,2.544-1.929,3.844c-0.331,0.709-0.117,0.992,0.643,0.807c0.511-0.123,1.051-0.409,1.423-0.777
		c1.341-1.324,2.564-2.771,3.932-4.062c1.529-1.442,3.157-2.783,4.773-4.128c0.229-0.19,0.649-0.149,0.983-0.218
		c-0.071,0.325-0.066,0.695-0.229,0.965c-0.49,0.82-1.081,1.581-1.567,2.403c-0.541,0.917-1.093,1.846-1.471,2.834
		c-0.171,0.449-0.128,1.28,0.166,1.533c0.384,0.331,1.148,0.432,1.686,0.32c0.689-0.142,1.434-0.464,1.947-0.934
		c1.587-1.456,3.079-3.018,4.599-4.55"/>
	<path clip-path="url(#SVGID_2_)" d="M343.787,148.7c0,0,0.32-0.356,0.968-0.682c0.647-0.322,1.633-0.573,2.791-0.961
		c2.319-0.762,5.459-1.617,8.598-2.474c3.142-0.847,6.288-1.676,8.662-2.249c2.373-0.578,3.965-0.929,3.965-0.929l0.038,0.133
		c0,0-1.533,0.555-3.848,1.33c-2.314,0.782-5.418,1.76-8.527,2.721c-3.111,0.95-6.223,1.9-8.591,2.495
		c-1.187,0.289-2.154,0.603-2.873,0.677C344.248,148.831,343.787,148.7,343.787,148.7"/>
	<path clip-path="url(#SVGID_2_)" d="M379.111,138.048c12.033-3.182,22.377-4.125,22.377-4.125"/>
	<path clip-path="url(#SVGID_2_)" d="M379.102,138.007c0,0,0.29-0.323,0.865-0.6c0.288-0.137,0.646-0.268,1.068-0.362
		c0.421-0.105,0.896-0.225,1.413-0.354c1.037-0.254,2.257-0.505,3.566-0.77c0.657-0.12,1.325-0.282,2.024-0.377
		c0.697-0.104,1.405-0.209,2.113-0.315c1.412-0.216,2.825-0.431,4.15-0.633c0.659-0.111,1.305-0.158,1.913-0.234
		c0.608-0.068,1.185-0.134,1.716-0.193c1.062-0.121,1.947-0.224,2.57-0.266c0.621-0.052,0.977-0.083,0.977-0.083l0.019,0.205
		c0,0-0.353,0.048-0.969,0.13c-0.617,0.074-1.494,0.22-2.547,0.394c-0.526,0.087-1.096,0.18-1.699,0.278
		c-0.601,0.106-1.241,0.185-1.891,0.328c-1.303,0.266-2.694,0.55-4.084,0.833c-0.693,0.144-1.386,0.287-2.069,0.429
		c-0.684,0.128-1.345,0.345-1.992,0.506c-1.291,0.337-2.497,0.647-3.54,0.877c-0.522,0.111-1.001,0.213-1.425,0.303
		c-0.422,0.101-0.801,0.142-1.119,0.146c-0.639,0.004-1.042-0.158-1.042-0.158L379.102,138.007z"/>
	<path clip-path="url(#SVGID_2_)" d="M411.955,135.368c0,0-0.874-1.567,0.938-1.819c1.812-0.253,1.441,0.006,1.314,0.994
		C414.082,135.533,411.955,135.368,411.955,135.368"/>
</g>
</svg>
