<?xml version="1.0" encoding="iso-8859-1"?>
<!-- Generator: Adobe Illustrator 19.0.0, SVG Export Plug-In . SVG Version: 6.00 Build 0)  -->
<svg version="1.1" id="Layer_1" xmlns="http://www.w3.org/2000/svg" xmlns:xlink="http://www.w3.org/1999/xlink" x="0px" y="0px"
	 viewBox="0 0 206.266 206.266" style="enable-background:new 0 0 206.266 206.266;" xml:space="preserve">
<g>
	<g>
		<path d="M103.133,0C46.264,0,0,46.266,0,103.133c0,56.87,46.264,103.133,103.133,103.133s103.133-46.264,103.133-103.133
			C206.267,46.266,160.003,0,103.133,0z M103.133,7.933c51.164,0,93.031,40.573,95.119,91.233H8.015
			C10.103,48.506,51.97,7.933,103.133,7.933z M103.134,198.333c-21.844,0-41.98-7.414-58.063-19.833h116.125
			C145.114,190.919,124.978,198.333,103.134,198.333z M170.235,170.567H36.032c-4.833-4.809-9.167-10.119-12.885-15.867H183.12
			C179.401,160.448,175.068,165.757,170.235,170.567z M187.603,147.002c-0.376-0.118-0.754-0.236-1.169-0.236h-166.6
			c-0.415,0-0.794,0.118-1.169,0.236c-2.666-5.113-4.87-10.501-6.582-16.102h182.103
			C192.473,136.501,190.269,141.889,187.603,147.002z M196.227,122.967H10.04c-1.097-5.152-1.802-10.447-2.025-15.867h190.237
			C198.029,112.52,197.324,117.815,196.227,122.967z"/>
	</g>
</g>
<g>
</g>
<g>
</g>
<g>
</g>
<g>
</g>
<g>
</g>
<g>
</g>
<g>
</g>
<g>
</g>
<g>
</g>
<g>
</g>
<g>
</g>
<g>
</g>
<g>
</g>
<g>
</g>
<g>
</g>
</svg>
